<?xml version="1.0" encoding="utf-8"?>
<!-- Generator: Adobe Illustrator 20.1.0, SVG Export Plug-In . SVG Version: 6.00 Build 0)  -->
<svg version="1.1" id="Layer_1" xmlns="http://www.w3.org/2000/svg" xmlns:xlink="http://www.w3.org/1999/xlink" x="0px" y="0px"
	 viewBox="0 0 200 100" style="enable-background:new 0 0 200 100;" xml:space="preserve">
<style type="text/css">
	.st0{fill:#FFD076;}
	.st1{fill:none;}
</style>
<g>
	<path class="st0" d="M59.5,38.9v3.9H22.6v-3.9H59.5z M96.3,95.9l-0.7,0.7c-2.2,2.2-5.1,3.4-8.3,3.4s-6.1-1.2-8.3-3.4L59.7,77.1
		c-5.6,2.9-12,4.6-18.8,4.6C18.3,81.8,0,63.4,0,40.9C0,18.3,18.3,0,40.9,0c22.5,0,40.9,18.3,40.9,40.9c0,6.9-1.7,13.4-4.8,19.1
		l19.3,19.3C100.9,83.9,100.9,91.3,96.3,95.9z M40.9,77.9c7.5,0,14.5-2.3,20.4-6.2c0.3-0.2,0.7-0.5,1-0.7c0.5-0.4,1-0.7,1.5-1.1
		c0.3-0.3,0.7-0.5,1-0.8c0.6-0.5,1.2-1,1.7-1.6c0.4-0.4,0.8-0.8,1.2-1.2c0.4-0.4,0.8-0.9,1.2-1.3c0.3-0.4,0.6-0.8,1-1.2
		c0.3-0.4,0.7-0.9,1-1.3c0.5-0.7,1-1.4,1.4-2.1c0.3-0.5,0.7-1.1,1-1.6l0.2-0.4c2.8-5.2,4.4-11.2,4.4-17.6c0-20.4-16.6-37-37-37
		c-20.4,0-37,16.6-37,37C3.9,61.3,20.5,77.9,40.9,77.9z M93.6,82.1L75,63.4c-2.3,3.5-5.1,6.6-8.3,9.2c-0.2,0.1-0.4,0.3-0.6,0.4
		c-0.9,0.7-1.8,1.4-2.7,2c-0.1,0-0.1,0.1-0.2,0.1l18.7,18.7c1.5,1.5,3.4,2.3,5.5,2.3s4.1-0.8,5.5-2.3l0.7-0.7
		C96.7,90.1,96.7,85.2,93.6,82.1z"/>
</g>
<g>
	<path class="st0" d="M159.8,38.9v3.9h-16.5v16.5h-3.9V42.7h-16.5v-3.9h16.5V22.3h3.9v16.5C143.2,38.9,159.8,38.9,159.8,38.9z
		 M196.6,95.9l-0.7,0.7c-2.2,2.2-5.1,3.4-8.3,3.4s-6.1-1.2-8.3-3.4l-19.4-19.4c-5.6,2.9-12,4.6-18.8,4.6
		c-22.5,0-40.9-18.3-40.9-40.9c0-22.5,18.3-40.9,40.9-40.9C163.7,0,182,18.3,182,40.9c0,6.9-1.7,13.4-4.8,19.1l19.3,19.3
		C201.1,83.9,201.1,91.3,196.6,95.9z M141.1,77.9c7.5,0,14.5-2.3,20.4-6.2c0.3-0.2,0.7-0.5,1-0.7c0.5-0.4,1-0.7,1.5-1.1
		c0.3-0.3,0.7-0.5,1-0.8c0.6-0.5,1.2-1,1.7-1.6c0.4-0.4,0.8-0.8,1.2-1.2c0.4-0.4,0.8-0.9,1.2-1.3c0.3-0.4,0.6-0.8,1-1.2
		c0.3-0.4,0.7-0.9,1-1.3c0.5-0.7,1-1.4,1.4-2.1c0.3-0.5,0.7-1.1,1-1.6l0.2-0.4c2.8-5.2,4.4-11.2,4.4-17.6c0-20.4-16.6-37-37-37
		c-20.4,0-37,16.6-37,37C104.1,61.3,120.7,77.9,141.1,77.9z M193.9,82.1l-18.7-18.7c-2.3,3.5-5.1,6.6-8.3,9.2
		c-0.2,0.1-0.4,0.3-0.6,0.4c-0.9,0.7-1.8,1.4-2.7,2c-0.1,0-0.1,0.1-0.2,0.1l18.7,18.7c1.5,1.5,3.4,2.3,5.5,2.3s4.1-0.8,5.5-2.3
		l0.7-0.7C196.9,90.1,196.9,85.2,193.9,82.1z"/>
</g>
<line class="st1" x1="99.8" y1="0" x2="100.2" y2="100"/>
<line class="st1" x1="0" y1="0" x2="99.8" y2="0"/>
<line class="st1" x1="100" y1="99.6" x2="100" y2="-0.4"/>
<line class="st1" x1="200" y1="0" x2="100" y2="-0.4"/>
<line class="st1" x1="40.9" y1="-94.5" x2="40.9" y2="-96"/>
<line class="st1" x1="91.5" y1="-120" x2="31" y2="-95.3"/>
</svg>
